<?xml version="1.0" encoding="UTF-8" standalone="no"?>
<svg
   xmlns:dc="http://purl.org/dc/elements/1.1/"
   xmlns:cc="http://creativecommons.org/ns#"
   xmlns:rdf="http://www.w3.org/1999/02/22-rdf-syntax-ns#"
   xmlns:svg="http://www.w3.org/2000/svg"
   xmlns="http://www.w3.org/2000/svg"
   xmlns:sodipodi="http://sodipodi.sourceforge.net/DTD/sodipodi-0.dtd"
   xmlns:inkscape="http://www.inkscape.org/namespaces/inkscape"
   width="21"
   height="20"
   viewBox="0 0 21 20"
   version="1.1"
   id="svg5070"
   sodipodi:docname="basket-red-white.svg"
   inkscape:version="0.92.1 r15371">
  <metadata
     id="metadata5076">
    <rdf:RDF>
      <cc:Work
         rdf:about="">
        <dc:format>image/svg+xml</dc:format>
        <dc:type
           rdf:resource="http://purl.org/dc/dcmitype/StillImage" />
        <dc:title></dc:title>
      </cc:Work>
    </rdf:RDF>
  </metadata>
  <defs
     id="defs5074" />
  <sodipodi:namedview
     pagecolor="#ffffff"
     bordercolor="#666666"
     borderopacity="1"
     objecttolerance="10"
     gridtolerance="10"
     guidetolerance="10"
     inkscape:pageopacity="0"
     inkscape:pageshadow="2"
     inkscape:window-width="1366"
     inkscape:window-height="705"
     id="namedview5072"
     showgrid="false"
     inkscape:zoom="11.8"
     inkscape:cx="10.5"
     inkscape:cy="10"
     inkscape:window-x="-8"
     inkscape:window-y="-8"
     inkscape:window-maximized="1"
     inkscape:current-layer="svg5070" />
  <path
     fill="#E84D37"
     d="M5.888 4.031L6.922 13h10.45l1.176-8.969z"
     id="path5062" />
  <circle
     fill="#343434"
     cx="6.984"
     cy="18"
     r="2"
     id="circle5064" />
  <circle
     fill="#343434"
     cx="15.984"
     cy="18"
     r="2"
     id="circle5066" />
  <path
     fill="#343434"
     d="M5.657 2.031L5.422 0H0v2h3.64l1.5 13h13.988l1.699-12.969H5.657zM17.372 13H6.922L5.888 4.031h12.66L17.372 13z"
     id="path5068" />
  <path
     style="opacity:1;fill:#ffffff;fill-opacity:1;fill-rule:nonzero;stroke:#00e400;stroke-width:0;stroke-miterlimit:4;stroke-dasharray:none;stroke-opacity:0"
     d="m -0.47517214,-0.93713585 c -0.89403736,0.5070576 -0.55218346,1.62912283 -0.61639306,2.47103415 -0.1335611,0.7512885 0.35128288,1.6139936 1.18478554,1.5661414 0.86798034,0.00104 1.73597416,-0.0022 2.60394596,0.00199 0.4863722,4.0075402 0.8962426,8.0255533 1.4087328,12.0334023 0.1420753,0.782153 0.9832035,1.030204 1.680184,0.930714 4.4557489,-0.01276 8.9173319,0.0255 13.3694359,-0.01913 0.923323,-0.06277 1.096627,-1.089649 1.148036,-1.835839 0.530456,-4.01306 1.060203,-8.0313422 1.57025,-12.0439275 0.08032,-0.8573514 -0.835286,-1.32733321 -1.58941,-1.18254168 -4.559002,0 -9.118004,0 -13.6770062,0 C 6.5347299,0.25628464 6.5584037,-0.80210235 5.6574379,-0.99351483 4.3511977,-1.1242808 3.0080008,-1.0116019 1.6876655,-1.0491923 0.96791331,-1.0120265 0.22412994,-1.1443911 -0.47517214,-0.93713585 Z M 12.219809,5.0491923 c 1.703804,0.00263 3.41012,-0.00251 5.101298,0.023835 -0.268429,2.2712922 -0.578172,4.5374145 -0.87212,6.8054817 -2.859996,0.0073 -5.744495,0.03868 -8.5877913,0.0076 C 7.605493,9.6080771 7.3276456,7.3480787 7.095008,5.0799788 c 1.7065903,-0.027187 3.40968,-0.028942 5.124801,-0.030787 z"
     id="path5623"
     inkscape:connector-curvature="0" />
  <path
     style="opacity:1;fill:#ffffff;fill-opacity:1;fill-rule:nonzero;stroke:#00e400;stroke-width:0;stroke-miterlimit:4;stroke-dasharray:none;stroke-opacity:0"
     d="m 6.8867849,14.963288 c -1.6855775,-0.02184 -3.1081497,1.594673 -2.9237288,3.26056 0.037799,1.845384 2.0378097,3.257672 3.7907177,2.730237 1.6728355,-0.415256 2.7169872,-2.375588 2.0838851,-3.988016 -0.4183541,-1.2235 -1.6717079,-2.032651 -2.950874,-2.002781 z"
     id="path5625"
     inkscape:connector-curvature="0" />
  <path
     style="opacity:1;fill:#ffffff;fill-opacity:1;fill-rule:nonzero;stroke:#00e400;stroke-width:0;stroke-miterlimit:4;stroke-dasharray:none;stroke-opacity:0"
     d="m 15.878774,14.969412 c -1.817357,-0.03229 -3.27698,1.854164 -2.879701,3.603847 0.283766,1.69643 2.16466,2.89768 3.81687,2.353681 1.703821,-0.447667 2.730786,-2.51505 1.962394,-4.124901 -0.457938,-1.156414 -1.663684,-1.898643 -2.899563,-1.832627 z"
     id="path5627"
     inkscape:connector-curvature="0" />
</svg>
